<svg width="22" height="24" viewBox="0 0 22 24" fill="none" xmlns="http://www.w3.org/2000/svg">
<g filter="url(#filter0_d_1_732)">
<path d="M12.8462 2.92312C12.8462 3.98725 10.9231 6.55568 10.9231 6.55568C10.9231 6.55568 9 3.98725 9 2.92312C9 2.41308 9.20261 1.92392 9.56327 1.56327C9.92392 1.20261 10.4131 1 10.9231 1C11.4332 1 11.9223 1.20261 12.283 1.56327C12.6436 1.92392 12.8462 2.41308 12.8462 2.92312V2.92312Z" stroke="#FCEFCE" stroke-width="0.5" stroke-linecap="round" stroke-linejoin="round"/>
<path d="M10.9231 3.56418C11.2772 3.56418 11.5642 3.27718 11.5642 2.92314C11.5642 2.56911 11.2772 2.2821 10.9231 2.2821C10.5691 2.2821 10.2821 2.56911 10.2821 2.92314C10.2821 3.27718 10.5691 3.56418 10.9231 3.56418Z" fill="#FCEFCE" stroke="#FCEFCE" stroke-width="0.5" stroke-linecap="round" stroke-linejoin="round"/>
</g>
<defs>
<filter id="filter0_d_1_732" x="0.75" y="0.75" width="20.3462" height="23.0557" filterUnits="userSpaceOnUse" color-interpolation-filters="sRGB">
<feFlood flood-opacity="0" result="BackgroundImageFix"/>
<feColorMatrix in="SourceAlpha" type="matrix" values="0 0 0 0 0 0 0 0 0 0 0 0 0 0 0 0 0 0 127 0" result="hardAlpha"/>
<feOffset dy="9"/>
<feGaussianBlur stdDeviation="4"/>
<feComposite in2="hardAlpha" operator="out"/>
<feColorMatrix type="matrix" values="0 0 0 0 0 0 0 0 0 0 0 0 0 0 0 0 0 0 0.2 0"/>
<feBlend mode="normal" in2="BackgroundImageFix" result="effect1_dropShadow_1_732"/>
<feBlend mode="normal" in="SourceGraphic" in2="effect1_dropShadow_1_732" result="shape"/>
</filter>
</defs>
</svg>
